#!OML:ASF X:\für Bonn\!DataBase\2005_08_10_Bjorn_Final\c3d\bjorn.ASF
:FULLY-SPECIFIED
:DEGREES
62
root 23.3854 19.3017 -1.98195 -8.04872 -81.9558 -352.729
lowerback 24.3951 3.29227 9.43153
upperback 21.6059 3.3293 1.17904
thorax 11.1737 1.95479 -4.39582
lowerneck 0.781037 -5.1242 4.6021
upperneck 8.45707 -6.96778 0.350704
head 2.387 -3.31497 -0.782018
rclavicle -5.40694e-014 1.90833e-014
rhumerus 16.4504 1.90026 -78.3697
rradius 29.9997
rwrist -6.99788
rhand -12.3218 11.8749
rfingers 7.12502
rthumb 13.7469 -17.651
lclavicle -5.40694e-014 1.90833e-014
lhumerus -1.59267 -18.3458 85.5174
lradius 32.4287
lwrist -18.4045
lhand -28.6679 -10.2687
lfingers 7.12502
lthumb -2.03101 19.7014
rfemur -18.8188 -14.7724 18.6471
rtibia 31.1815
rfoot -2.8589 20.758
rtoes 7.09955
lfemur -17.1244 8.02838 -10.551
ltibia 34.6005
lfoot -5.60077 6.23819
ltoes -13.5365
63
root 23.4095 19.2992 -1.97917 -6.46704 -81.9813 -353.73
lowerback 24.898 3.27031 9.40846
upperback 21.6986 3.29657 1.19552
thorax 11.0435 1.91766 -4.37248
lowerneck 1.10017 -5.11052 4.61796
upperneck 7.70333 -6.90525 0.378911
head 2.08312 -3.2978 -0.746355
rclavicle 1.74931e-014 -1.51076e-014
rhumerus 17.2691 2.05524 -78.1269
rradius 29.8177
rwrist -7.05137
rhand -12.2889 11.9806
rfingers 7.12502
rthumb 13.7786 -17.5431
lclavicle 1.74931e-014 -1.51076e-014
lhumerus -0.469681 -19.1428 85.0203
lradius 32.3547
lwrist -17.9899
lhand -28.8514 -10.2575
lfingers 7.12502
lthumb -2.20818 19.7109
rfemur -19.6977 -14.7879 18.9809
rtibia 31.3636
rfoot -2.76032 20.7541
rtoes 7.33676
lfemur -17.899 8.18243 -10.518
ltibia 34.7601
lfoot -5.36678 6.62531
ltoes -13.5524
64
root 23.4357 19.2965 -1.97429 -4.95854 -81.961 -354.635
lowerback 25.3894 3.23001 9.38775
upperback 21.8114 3.2347 1.21828
thorax 10.9413 1.86644 -4.33887
lowerneck 1.38059 -5.08776 4.58919
upperneck 6.93342 -6.8352 0.441271
head 1.78786 -3.27739 -0.694549
rclavicle -6.36111e-015 1.03368e-014
rhumerus 18.1628 2.17464 -77.8735
rradius 29.5694
rwrist -6.92474
rhand -12.337 12.1159
rfingers 7.12502
rthumb 13.7322 -17.4109
lclavicle -6.36111e-015 1.03368e-014
lhumerus 0.751336 -19.9124 84.4996
lradius 32.2667
lwrist -17.5773
lhand -28.9754 -10.2144
lfingers 7.12502
lthumb -2.32796 19.7526
rfemur -20.6049 -14.9121 19.2981
rtibia 31.5456
rfoot -2.63115 20.8101
rtoes 7.62785
lfemur -18.7277 8.35946 -10.5382
ltibia 34.9416
lfoot -5.07287 6.99142
ltoes -13.9927
65
root 23.4616 19.2953 -1.96888 -3.4934 -81.9723 -355.485
lowerback 25.8534 3.21157 9.34446
upperback 21.9496 3.18731 1.25218
thorax 10.8837 1.81954 -4.28177
lowerneck 1.63873 -5.05649 4.60467
upperneck 6.17174 -6.75285 0.424808
head 1.4993 -3.25111 -0.676166
rclavicle 3.18055e-015 -3.65764e-014
rhumerus 19.0846 2.37408 -77.5274
rradius 29.365
rwrist -6.98036
rhand -12.3412 12.2104
rfingers 7.12502
rthumb 13.7282 -17.3168
lclavicle 3.18055e-015 -3.65764e-014
lhumerus 2.10168 -20.6352 83.956
lradius 32.123
lwrist -17.1335
lhand -28.981 -10.2023
lfingers 7.12502
lthumb -2.33337 19.7647
rfemur -21.5277 -14.9643 19.6153
rtibia 31.7322
rfoot -2.5461 20.8367
rtoes 7.5862
lfemur -19.5507 8.53206 -10.5863
ltibia 35.1258
lfoot -4.83075 7.39934
ltoes -14.7369
66
root 23.4887 19.2924 -1.962 -2.10714 -81.9474 -356.209
lowerback 26.2852 3.1764 9.29071
upperback 22.0809 3.11664 1.27866
thorax 10.8307 1.76137 -4.22284
lowerneck 1.93855 -5.02267 4.61167
upperneck 5.35876 -6.66598 0.420539
head 1.19223 -3.22355 -0.651057
rclavicle 8.26944e-014 -3.18055e-015
rhumerus 20.0327 2.5525 -77.2013
rradius 29.125
rwrist -6.99122
rhand -12.2742 12.1803
rfingers 7.12502
rthumb 13.7927 -17.3424
lclavicle 8.26944e-014 -3.18055e-015
lhumerus 3.48699 -21.3384 83.3593
lradius 31.9553
lwrist -16.6716
lhand -28.916 -10.139
lfingers 7.12502
lthumb -2.27059 19.8287
rfemur -22.5062 -14.9741 19.9084
rtibia 31.9301
rfoot -2.4581 20.7962
rtoes 7.82068
lfemur -20.4422 8.71129 -10.6863
ltibia 35.3134
lfoot -4.55449 7.79999
ltoes -15.7529
67
root 23.5162 19.2891 -1.9541 -1.0151 -81.9184 -356.634
lowerback 26.7256 3.14891 9.21494
upperback 22.2422 3.04571 1.28829
thorax 10.8107 1.70262 -4.16977
lowerneck 2.22028 -4.98661 4.63329
upperneck 4.51791 -6.57856 0.428222
head 0.883713 -3.1956 -0.625868
rclavicle 1.90833e-014 1.35174e-014
rhumerus 21.0056 2.78595 -76.8191
rradius 28.9348
rwrist -7.20111
rhand -12.1596 12.1438
rfingers 7.12502
rthumb 13.9032 -17.3715
lclavicle 1.90833e-014 1.35174e-014
lhumerus 4.99075 -21.9977 82.6915
lradius 31.7517
lwrist -16.2484
lhand -28.7381 -10.0928
lfingers 7.12502
lthumb -2.09879 19.8766
rfemur -23.5041 -15.0318 20.163
rtibia 32.1396
rfoot -2.3622 20.795
rtoes 7.8611
lfemur -21.3241 8.86671 -10.8453
ltibia 35.4928
lfoot -4.33404 8.15662
ltoes -16.9015
68
root 23.5456 19.2869 -1.94531 -0.316711 -81.8443 -356.615
lowerback 27.1483 3.1157 9.09171
upperback 22.3815 2.96407 1.29973
thorax 10.7673 1.63295 -4.0873
lowerneck 2.6525 -4.96267 4.64029
upperneck 3.58401 -6.49912 0.458964
head 0.526954 -3.17385 -0.586619
rclavicle -1.43125e-014 2.8625e-014
rhumerus 21.9697 2.96432 -76.4319
rradius 28.7102
rwrist -7.41481
rhand -12.0407 12.1274
rfingers 7.12502
rthumb 14.0178 -17.38
lclavicle -1.43125e-014 2.8625e-014
lhumerus 6.45885 -22.548 82.0589
lradius 31.5487
lwrist -15.9475
lhand -28.509 -10.0664
lfingers 7.12502
lthumb -1.87754 19.9051
rfemur -24.5564 -15.0319 20.3452
rtibia 32.3613
rfoot -2.32763 20.7164
rtoes 7.73292
lfemur -22.2719 8.94212 -11.0866
ltibia 35.663
lfoot -4.19281 8.47785
ltoes -17.6746
69
root 23.5752 19.2821 -1.93527 0.547338 -81.792 -356.731
lowerback 27.5509 3.08801 8.97796
upperback 22.5358 2.88352 1.32091
thorax 10.7541 1.56464 -3.99843
lowerneck 3.10603 -4.91944 4.63056
upperneck 2.56483 -6.39334 0.48117
head 0.144759 -3.14087 -0.548763
rclavicle 4.92986e-014 4.53229e-014
rhumerus 22.9787 3.1451 -76.02
rradius 28.4912
rwrist -7.60068
rhand -11.9466 12.1317
rfingers 7.12502
rthumb 14.1085 -17.3694
lclavicle 4.92986e-014 4.53229e-014
lhumerus 7.982 -22.9658 81.4224
lradius 31.3281
lwrist -15.6787
lhand -28.2071 -10.1106
lfingers 7.12502
lthumb -1.58592 19.8632
rfemur -25.6594 -14.9854 20.5521
rtibia 32.5986
rfoot -2.26058 20.6171
rtoes 7.90478
lfemur -23.2435 9.03316 -11.3153
ltibia 35.8158
lfoot -4.0878 8.77914
ltoes -18.4514
